<?xml version="1.0" standalone="no"?>
<!DOCTYPE svg PUBLIC "-//W3C//DTD SVG 20010904//EN"
 "http://www.w3.org/TR/2001/REC-SVG-20010904/DTD/svg10.dtd">
<svg version="1.0" xmlns="http://www.w3.org/2000/svg"
 width="613.000000pt" height="1280.000000pt" viewBox="0 0 613.000000 1280.000000"
 preserveAspectRatio="xMidYMid meet">
<g transform="translate(0.000000,1280.000000) scale(0.100000,-0.100000)"
fill="#ffeb3b" stroke="none">
<path d="M1967 12709 c-108 -37 -179 -98 -235 -204 -25 -47 -27 -57 -26 -176
2 -124 12 -190 64 -399 11 -41 33 -138 51 -215 17 -77 58 -229 90 -339 33
-109 70 -242 84 -296 32 -128 80 -424 106 -653 24 -222 82 -576 114 -700 12
-51 82 -252 155 -447 173 -464 185 -502 225 -656 34 -129 65 -375 52 -408 -4
-10 -19 -16 -41 -16 -32 0 -41 8 -101 81 -78 98 -119 132 -205 173 -59 28 -74
30 -160 30 -85 0 -104 -4 -175 -34 -212 -89 -310 -204 -345 -404 -15 -88 -12
-251 6 -331 9 -38 17 -83 18 -99 1 -27 -2 -30 -52 -41 -83 -19 -175 -72 -250
-144 -96 -90 -113 -129 -122 -266 -5 -72 -14 -127 -27 -160 -11 -27 -31 -124
-43 -214 -20 -140 -21 -173 -12 -221 7 -31 12 -83 12 -116 0 -32 5 -75 11 -94
19 -61 18 -236 -3 -345 -25 -136 -23 -171 13 -278 27 -82 30 -101 25 -172 -3
-44 -1 -100 5 -125 5 -25 13 -85 18 -135 17 -172 70 -447 111 -570 28 -82 102
-243 235 -510 183 -367 197 -398 231 -530 74 -284 73 -416 -7 -614 -42 -106
-80 -246 -99 -363 -34 -217 -120 -526 -224 -802 -107 -285 -154 -414 -192
-526 -23 -69 -68 -197 -99 -285 -82 -230 -255 -744 -255 -756 0 -6 -27 -79
-60 -164 -33 -85 -60 -161 -60 -169 0 -14 143 -16 1453 -16 l1453 0 33 138
c43 176 76 299 106 387 13 39 49 151 80 250 30 99 69 214 85 255 16 41 43 116
61 165 18 50 44 124 59 165 15 41 35 93 44 115 10 22 26 63 36 90 9 28 38 102
64 165 26 63 60 156 76 205 52 164 178 687 200 830 11 77 27 169 35 205 54
241 71 308 105 410 21 63 62 171 90 240 89 216 155 400 198 550 71 250 73 268
71 695 -2 318 1 390 14 440 42 163 52 238 51 420 -1 150 -6 204 -28 325 -15
80 -29 197 -32 260 -6 119 -3 152 42 420 21 121 27 195 29 340 4 279 10 336
65 690 16 102 36 246 45 320 28 228 190 822 318 1167 47 125 92 251 100 278
39 123 96 382 112 505 19 152 44 282 80 415 13 50 36 137 50 195 14 58 48 170
75 250 54 161 112 428 135 620 35 295 5 429 -126 561 -104 105 -227 145 -363
119 -159 -30 -255 -154 -384 -500 -50 -132 -114 -361 -127 -450 -13 -87 -68
-286 -106 -380 -20 -52 -74 -176 -119 -275 -45 -99 -104 -234 -130 -300 -88
-218 -128 -312 -150 -356 -24 -46 -200 -456 -200 -465 0 -12 -123 -311 -151
-367 -56 -110 -109 -186 -171 -241 -67 -61 -110 -79 -228 -97 l-79 -12 -58 35
c-70 43 -121 106 -173 213 -62 128 -113 311 -225 795 -136 588 -120 534 -274
963 -102 286 -182 561 -236 807 -25 118 -64 274 -85 345 -21 72 -55 193 -75
269 -62 236 -116 349 -208 433 -120 111 -320 154 -470 102z"/>
</g>
</svg>
