<?xml version="1.0"?>
<svg xmlns="http://www.w3.org/2000/svg" xmlns:xlink="http://www.w3.org/1999/xlink" version="1.1" id="Layer_1" x="0px" y="0px" viewBox="0 0 512 512" style="enable-background:new 0 0 512 512;" xml:space="preserve" width="512px" height="512px" class=""><g transform="matrix(0.9993 0 0 0.9993 0.179146 0.179146)"><g>
	<g>
		<path d="M401.99,206v-65.01C401.99,63.25,336.5,0,256,0S110.01,63.25,110.01,140.99V206H73.47v306h365.06V206H401.99z     M140.01,140.99C140.01,79.79,192.04,30,256,30s115.99,49.79,115.99,110.99V206h-36.34v-62.48c0-41.15-35.73-74.63-79.65-74.63    s-79.65,33.48-79.65,74.63V206h-36.34V140.99z M305.65,143.52V206h-99.3v-62.48c0-24.61,22.27-44.63,49.65-44.63    S305.65,118.91,305.65,143.52z M408.53,482H103.47V236h6.54h96.34h99.3h96.34h6.54V482z" data-original="#000000" class="active-path" data-old_color="#000000" fill="#267DF4"/>
	</g>
</g><g>
	<g>
		<polygon points="319.707,301.978 245.057,380.215 199.774,341.91 180.399,364.815 247.255,421.369 341.412,322.688   " data-original="#000000" class="active-path" data-old_color="#000000" fill="#267DF4"/>
	</g>
</g></g> </svg>
